<svg width="117" height="112" viewBox="0 0 117 112" fill="none" xmlns="http://www.w3.org/2000/svg">
<path d="M88.9999 6.80008C86.9999 12.0001 85.6666 13.3334 80.0666 16.0001L73.3999 19.0667L80.0666 22.5334C85.3999 25.2001 87.1333 26.9334 89.1333 32.0001C90.5999 35.3334 92.0666 38.0001 92.5999 38.0001C92.9999 38.0001 94.4666 35.2001 95.7999 31.8667C97.6666 26.8001 99.2666 25.2001 104.867 22.4001L111.667 18.9334L104.867 16.0001C98.8666 13.3334 97.6666 12.1334 95.6666 6.80008C94.3333 3.46675 92.8666 0.666748 92.3333 0.666748C91.7999 0.666748 90.3333 3.46675 88.9999 6.80008Z" fill="black"/>
<path d="M30.3333 28.8001C29.7999 32.6667 28.5999 35.8668 27.5333 36.2668C26.4666 36.6668 22.8666 36.0001 19.5333 34.6667C16.1999 33.4667 13.2666 32.5334 13.1333 32.8001C11.5333 34.6667 0.333252 55.2001 0.333252 56.1334C0.333252 56.8001 2.73325 59.0667 5.66659 61.0667C8.59992 63.2001 10.9999 65.6001 10.9999 66.5334C10.9999 67.4668 8.59992 70.0001 5.66659 72.0001C2.73325 74.0001 0.333252 76.2668 0.333252 76.9334C0.333252 78.4001 12.1999 99.0668 13.5333 99.8668C14.0666 100.267 16.9999 99.3334 20.0666 98.0001C23.1333 96.5334 26.5999 95.7334 27.6666 96.1334C28.7333 96.5334 29.7999 99.7334 30.4666 104.133L31.2666 111.333H44.9999C60.0666 111.333 60.1999 111.2 60.3333 101.867C60.3333 96.0001 63.1333 94.9334 70.3333 98.0001C73.7999 99.4668 76.8666 100.533 76.9999 100.4C77.2666 100.133 80.4666 94.8001 84.0666 88.4001L90.8666 76.8001L85.5333 72.5334C82.7333 70.2667 80.3333 67.4667 80.3333 66.2667C80.3333 64.9334 82.7333 62.2667 85.6666 60.1334C90.4666 56.5334 90.8666 55.8668 89.2666 53.4668C88.1999 51.8668 85.1333 46.5334 82.3333 41.6001C76.9999 32.0001 77.2666 32.0001 68.8666 35.4667C63.3999 37.6001 60.3333 36.2667 60.3333 31.7334C60.3333 22.1334 60.0666 22.0001 44.9999 22.0001H31.2666L30.3333 28.8001ZM52.3333 51.7334C56.8666 54.0001 61.6666 61.6001 61.6666 66.5334C61.6666 76.1334 51.5333 84.5334 42.1999 82.6667C36.4666 81.6001 30.0666 75.2001 28.9999 69.4668C26.5999 56.8001 40.8666 45.8668 52.3333 51.7334Z" fill="black"/>
<path d="M101.267 54.5334C100.067 57.3334 97.1333 60.2667 94.3333 61.6001L89.5333 64.1334L94.1999 65.7334C97.1333 66.8001 99.2666 68.8001 100.333 71.3334C102.733 77.0667 104.2 77.4667 105.8 72.6667C106.733 70.1334 109 67.7334 112.067 66.1334L116.867 63.7334L112.6 61.4667C110.333 60.2667 107.267 57.2001 105.933 54.5334L103.533 49.8667L101.267 54.5334Z" fill="black"/>
</svg>
